<?xml version="1.0" encoding="utf-8"?>
<svg viewBox="0 0 20.077 20.077" xmlns="http://www.w3.org/2000/svg">
  <g id="ðŸ”-Product-Icons" stroke="#ddd" stroke-width="0.05" fill="none" fill-rule="evenodd" transform="matrix(1, 0, 0, 1, -1.9613959789276123, -1.9613969326019287)">
    <g id="ic_fluent_select_all_24_regular" fill="#ddd" fill-rule="nonzero">
      <path d="M 20.496 5.627 C 21.372 5.934 22 6.769 22 7.75 L 22 17.75 C 22 20.097 20.097 22 17.75 22 L 7.75 22 C 6.769 22 5.934 21.372 5.627 20.496 L 7.724 20.5 L 17.75 20.5 C 19.269 20.5 20.5 19.269 20.5 17.75 L 20.5 7.75 L 20.496 7.699 L 20.496 5.627 Z M 17.247 2 C 18.489 2 19.497 3.007 19.497 4.25 L 19.497 17.247 C 19.497 18.489 18.489 19.497 17.247 19.497 L 4.25 19.497 C 3.007 19.497 2 18.489 2 17.247 L 2 4.25 C 2 3.007 3.007 2 4.25 2 L 17.247 2 Z M 17.247 3.5 L 4.25 3.5 C 3.836 3.5 3.5 3.836 3.5 4.25 L 3.5 17.247 C 3.5 17.661 3.836 17.997 4.25 17.997 L 17.247 17.997 C 17.661 17.997 17.997 17.661 17.997 17.247 L 17.997 4.25 C 17.997 3.836 17.661 3.5 17.247 3.5 Z" id="ðŸŽ¨-Color"/>
    </g>
  </g>
</svg>