<?xml version="1.0" encoding="utf-8"?>
<svg viewBox="0 0 19.114 15.114" fill="none" xmlns="http://www.w3.org/2000/svg">
  <path d="M 9.559 7.557 L 9.559 14.557 M 9.559 14.557 L 7.309 12.224 M 9.559 14.557 L 11.809 12.224 M 4.159 13.39 C 2.171 13.39 0.559 11.749 0.559 9.724 C 0.559 8.055 1.653 6.647 3.151 6.203 C 3.215 6.184 3.259 6.124 3.259 6.057 C 3.259 3.019 5.677 0.557 8.659 0.557 C 11.641 0.557 14.059 3.019 14.059 6.057 C 14.059 6.115 14.113 6.158 14.168 6.146 C 14.423 6.087 14.687 6.057 14.959 6.057 C 16.947 6.057 18.559 7.698 18.559 9.724 C 18.559 11.749 16.947 13.39 14.959 13.39" stroke="#ddd" stroke-linecap="round" stroke-linejoin="round" stroke-width="1.1" transform="matrix(0.9999999999999999, 0, 0, 0.9999999999999999, -2.220446049250313e-16, 0)"/>
</svg>