<?xml version="1.0" encoding="utf-8"?>
<svg viewBox="0 0 19 15" fill="none" xmlns="http://www.w3.org/2000/svg">
  <path d="M 9.507 14.5 L 9.507 7.5 M 9.507 7.5 L 7.257 9.834 M 9.507 7.5 L 11.757 9.834 M 4.107 13.334 C 2.119 13.334 0.507 11.692 0.507 9.667 C 0.507 7.998 1.601 6.59 3.099 6.146 C 3.163 6.127 3.207 6.068 3.207 6 C 3.207 2.963 5.625 0.5 8.607 0.5 C 11.589 0.5 14.007 2.963 14.007 6 C 14.007 6.059 14.061 6.102 14.116 6.089 C 14.371 6.031 14.635 6 14.907 6 C 16.895 6 18.507 7.642 18.507 9.667 C 18.507 11.692 16.895 13.334 14.907 13.334" stroke="#334e60" stroke-linecap="round" stroke-linejoin="round" transform="matrix(1, 0, 0, 1, 0, -1.7763568394002505e-15)"/>
</svg>
